<?xml version="1.0" encoding="utf-8"?>
<!-- Generator: Adobe Illustrator 18.0.0, SVG Export Plug-In . SVG Version: 6.00 Build 0)  -->
<!DOCTYPE svg PUBLIC "-//W3C//DTD SVG 1.1//EN" "http://www.w3.org/Graphics/SVG/1.1/DTD/svg11.dtd">
<svg version="1.1" xmlns="http://www.w3.org/2000/svg" xmlns:xlink="http://www.w3.org/1999/xlink" x="0px" y="0px"
	 viewBox="0 0 150 140.6" enable-background="new 0 0 150 140.6" xml:space="preserve">
<g id="Warstwa_1" display="none">
</g>
<g id="guide_x5F_lines">
	<g>
		<g>
			<path d="M28.4,76.4l6.1-20.2h6.2L31.3,83h-5.8l-9.3-26.9h6.2L28.4,76.4z"/>
			<path d="M53.6,83c-0.2-0.5-0.4-1.1-0.5-1.8c-1.3,1.4-3,2.2-5,2.2c-2,0-3.6-0.6-4.9-1.7c-1.3-1.1-1.9-2.6-1.9-4.3
				c0-2.1,0.8-3.7,2.4-4.9c1.6-1.1,3.8-1.7,6.8-1.7h2.5v-1.1c0-0.9-0.2-1.7-0.7-2.2c-0.5-0.6-1.2-0.8-2.2-0.8
				c-0.9,0-1.6,0.2-2.1,0.6c-0.5,0.4-0.8,1-0.8,1.8h-5.3c0-1.2,0.4-2.2,1.1-3.2c0.7-1,1.7-1.8,3-2.3c1.3-0.6,2.8-0.8,4.4-0.8
				c2.5,0,4.4,0.6,5.9,1.9c1.4,1.2,2.2,3,2.2,5.2v8.7c0,1.9,0.3,3.3,0.8,4.3V83H53.6z M49.2,79.3c0.8,0,1.5-0.2,2.2-0.5
				c0.7-0.4,1.2-0.8,1.5-1.4V74h-2c-2.7,0-4.1,0.9-4.3,2.8l0,0.3c0,0.7,0.2,1.2,0.7,1.6C47.7,79.1,48.3,79.3,49.2,79.3z"/>
			<path d="M80.3,73.2c0,3.1-0.7,5.5-2.1,7.4c-1.4,1.9-3.3,2.8-5.7,2.8c-2,0-3.7-0.7-4.9-2.1v9.4h-5.3V63.1h5l0.2,2
				c1.3-1.6,3-2.3,5.1-2.3c2.5,0,4.4,0.9,5.7,2.7c1.4,1.8,2.1,4.3,2.1,7.5V73.2z M74.9,72.8c0-1.9-0.3-3.3-1-4.3
				c-0.7-1-1.6-1.5-2.9-1.5c-1.7,0-2.8,0.6-3.5,1.9v8.2c0.7,1.3,1.8,2,3.5,2C73.7,79.1,74.9,77,74.9,72.8z"/>
			<path d="M92.8,83.4c-2.9,0-5.3-0.9-7.2-2.7c-1.8-1.8-2.8-4.2-2.8-7.2V73c0-2,0.4-3.8,1.2-5.4s1.9-2.8,3.3-3.7
				c1.4-0.9,3-1.3,4.9-1.3c2.7,0,4.9,0.9,6.5,2.6c1.6,1.7,2.4,4.2,2.4,7.3v2.2H88.3c0.2,1.3,0.7,2.4,1.6,3.1c0.9,0.8,2,1.2,3.3,1.2
				c2.1,0,3.7-0.7,4.8-2.2l2.6,2.9c-0.8,1.1-1.9,2-3.3,2.7C96,83.1,94.4,83.4,92.8,83.4z M92.2,67c-1.1,0-1.9,0.4-2.6,1.1
				c-0.7,0.7-1.1,1.7-1.3,3.1h7.4v-0.4c0-1.2-0.3-2.1-1-2.8C94.2,67.3,93.3,67,92.2,67z"/>
			<path d="M24.6,111.5v10.2h-6V92.7h11.3c2.2,0,4.1,0.4,5.7,1.2c1.6,0.8,2.9,1.9,3.8,3.4c0.9,1.5,1.3,3.1,1.3,5
				c0,2.8-1,5.1-2.9,6.7c-1.9,1.6-4.6,2.5-8.1,2.5H24.6z M24.6,106.7h5.3c1.6,0,2.8-0.4,3.6-1.1s1.2-1.8,1.2-3.2
				c0-1.4-0.4-2.6-1.3-3.4c-0.8-0.9-2-1.3-3.5-1.4h-5.5V106.7z"/>
			<path d="M56.8,121.7c-0.3-0.5-0.5-1.2-0.6-1.9c-1.4,1.6-3.2,2.3-5.4,2.3c-2.1,0-3.9-0.6-5.2-1.8c-1.4-1.2-2.1-2.8-2.1-4.6
				c0-2.3,0.8-4,2.5-5.2s4.1-1.8,7.3-1.8h2.6v-1.2c0-1-0.3-1.8-0.8-2.4s-1.3-0.9-2.4-0.9c-1,0-1.7,0.2-2.3,0.7
				c-0.5,0.5-0.8,1.1-0.8,1.9h-5.7c0-1.2,0.4-2.4,1.2-3.5s1.9-1.9,3.3-2.5c1.4-0.6,3-0.9,4.7-0.9c2.6,0,4.8,0.7,6.3,2
				c1.6,1.3,2.3,3.2,2.3,5.6v9.3c0,2,0.3,3.6,0.9,4.6v0.3H56.8z M52,117.7c0.8,0,1.6-0.2,2.3-0.6c0.7-0.4,1.2-0.9,1.6-1.5v-3.7h-2.1
				c-2.9,0-4.4,1-4.6,3l0,0.3c0,0.7,0.3,1.3,0.8,1.8C50.4,117.5,51.1,117.7,52,117.7z"/>
			<path d="M73,94.9v5.3h3.7v4.2H73v10.7c0,0.8,0.2,1.4,0.5,1.7c0.3,0.3,0.9,0.5,1.7,0.5c0.6,0,1.2,0,1.7-0.1v4.4
				c-1.1,0.3-2.3,0.5-3.5,0.5c-4,0-6.1-2-6.2-6.1v-11.6h-3.1v-4.2h3.1v-5.3H73z"/>
			<path d="M85.5,102.5c1.5-1.8,3.4-2.7,5.7-2.7c4.7,0,7,2.7,7.1,8.1v13.8h-5.7v-13.6c0-1.2-0.3-2.1-0.8-2.7
				c-0.5-0.6-1.4-0.9-2.6-0.9c-1.7,0-2.9,0.6-3.7,1.9v15.3h-5.7V91.2h5.7V102.5z"/>
		</g>
		<path d="M136.4,109.8c0,14.4-11.7,26.1-26.1,26.1H4.7V39.8c0-14.4,11.7-26.1,26.1-26.1h85.3V9H30.8C13.8,9,0,22.8,0,39.8v100.9
			h110.2c17,0,30.8-13.8,30.8-30.8v-76h-4.7V109.8z"/>
		<polygon points="125.1,0 125.1,4.7 145.3,4.7 145.3,24.9 150,24.9 150,0 		"/>
		<polygon points="100.2,24.9 100.2,29.6 120.4,29.6 120.4,49.8 125.1,49.8 125.1,24.9 		"/>
	</g>
</g>
</svg>
